<?xml version="1.0" encoding="UTF-8" standalone="no"?>
<!-- Generator: Adobe Illustrator 16.0.0, SVG Export Plug-In . SVG Version: 6.00 Build 0)  -->

<svg
   xmlns:dc="http://purl.org/dc/elements/1.1/"
   xmlns:cc="http://creativecommons.org/ns#"
   xmlns:rdf="http://www.w3.org/1999/02/22-rdf-syntax-ns#"
   xmlns:svg="http://www.w3.org/2000/svg"
   xmlns="http://www.w3.org/2000/svg"
   xmlns:sodipodi="http://sodipodi.sourceforge.net/DTD/sodipodi-0.dtd"
   xmlns:inkscape="http://www.inkscape.org/namespaces/inkscape"
   version="1.1"
   id="Layer_1"
   x="0px"
   y="0px"
   width="999.99994"
   height="310.52161"
   viewBox="-4.725 200.945 999.99994 310.52161"
   enable-background="new -4.725 200.945 1200 440"
   xml:space="preserve"
   sodipodi:docname="84c1e40ea0e759e3f1505eb1788ddf3c_greensock-logo.svg"
   inkscape:version="0.92.4 (5da689c313, 2019-01-14)"><metadata
   id="metadata201"><rdf:RDF><cc:Work
       rdf:about=""><dc:format>image/svg+xml</dc:format><dc:type
         rdf:resource="http://purl.org/dc/dcmitype/StillImage" /><dc:title></dc:title></cc:Work></rdf:RDF></metadata><defs
   id="defs199">
	
	
	

		
		
		
		
		
		
		
		
		
		
		
		
		
		
		
	
		
		
		
		
		
		
		
		
		
	
		
		
		
		
		
		
		
		
		
		
		
		
		
		
		
		
		
		
		
	</defs><sodipodi:namedview
   pagecolor="#ffffff"
   bordercolor="#111111"
   borderopacity="1"
   objecttolerance="10"
   gridtolerance="10"
   guidetolerance="10"
   inkscape:pageopacity="0"
   inkscape:pageshadow="2"
   inkscape:window-width="1920"
   inkscape:window-height="1017"
   id="namedview197"
   showgrid="false"
   fit-margin-top="0"
   fit-margin-left="0"
   fit-margin-right="0"
   fit-margin-bottom="0"
   inkscape:zoom="0.78017448"
   inkscape:cx="235.5966"
   inkscape:cy="91.245802"
   inkscape:window-x="1912"
   inkscape:window-y="-8"
   inkscape:window-maximized="1"
   inkscape:current-layer="Layer_1" />

<path
   d="m 364.5108,270.92745 c 14.92875,0 28.79211,5.33139 28.79211,9.41936 0,2.48857 -3.19884,8.70823 -5.15426,8.70823 -1.59942,0 -8.8871,-6.57567 -23.46072,-6.57567 -26.65956,0 -35.36778,15.46277 -35.36778,41.76631 0,23.10472 6.9308,42.65547 33.76836,42.65547 7.81995,0 15.46277,-0.88828 19.37274,-1.95456 v -30.39152 h -17.59532 c -2.13255,0 -3.0217,-1.42229 -3.0217,-4.44399 v -2.48856 c 0,-3.19883 0.88915,-4.44311 3.0217,-4.44311 h 26.48242 c 3.19884,0 4.44312,1.42141 4.44312,4.44311 v 39.98977 c 0,8.53022 -16.35104,10.84165 -33.59123,10.84165 -30.03639,0 -46.56544,-16.88505 -46.56544,-52.78597 0,-37.67834 17.41732,-54.74052 48.876,-54.74052 z"
   id="path44"
   inkscape:connector-curvature="0"
   style="fill:#000000;fill-opacity:1;stroke-width:0.87256747" /><path
   d="m 411.43224,321.58086 c 0,-12.44194 -1.77742,-18.30646 -1.77742,-19.0176 0,-2.8437 6.22053,-3.55397 8.17508,-3.55397 3.55484,0 4.44399,6.04253 5.33139,9.9525 5.15426,-7.28768 11.19766,-11.37479 17.41819,-11.37479 5.8654,0 8.70823,2.48857 8.70823,5.8654 0,2.8437 -1.24428,8.17596 -3.0217,8.17596 -1.95455,0 -3.19884,-1.60029 -8.35309,-1.60029 -7.81995,0 -13.86335,9.24223 -13.86335,9.24223 v 55.27454 c 0,2.13255 -1.77655,3.37683 -6.04253,3.37683 h -0.53314 c -4.26599,0 -6.04253,-1.24428 -6.04253,-3.37683 v -52.96398 z"
   id="path46"
   inkscape:connector-curvature="0"
   style="fill:#000000;fill-opacity:1;stroke-width:0.87256747" /><path
   d="m 490.52176,297.587 c 20.61615,0 31.10266,13.68535 31.10266,39.27863 0,1.77742 -3.19883,6.22053 -4.97625,6.22053 h -47.63171 c 1.24428,16.70618 8.35309,24.349 23.28272,24.349 13.15221,0 20.43989,-6.39854 22.03931,-6.39854 2.13255,0 5.33138,5.8654 5.33138,7.46569 0,3.55396 -11.90792,9.59737 -27.19269,9.59737 -25.06014,0 -36.96807,-12.79708 -36.96807,-39.81177 -0.178,-26.48242 11.90793,-40.70091 35.01265,-40.70091 z m 17.59532,34.83551 c 0,-15.8179 -6.0434,-23.81585 -18.12846,-23.81585 -13.15221,0 -20.08389,7.99795 -21.15017,23.81585 z"
   id="path48"
   inkscape:connector-curvature="0"
   style="fill:#000000;fill-opacity:1;stroke-width:0.87256747" /><path
   d="m 568.723,297.587 c 20.61615,0 31.10267,13.68535 31.10267,39.27863 0,1.77742 -3.19883,6.22053 -4.97625,6.22053 H 547.2177 c 1.24428,16.70618 8.35309,24.349 23.28359,24.349 13.15134,0 20.43902,-6.39854 22.03844,-6.39854 2.13255,0 5.33139,5.8654 5.33139,7.46569 0,3.55396 -11.90706,9.59737 -27.1927,9.59737 -25.06013,0 -36.96806,-12.79708 -36.96806,-39.81177 -8.8e-4,-26.48242 11.90793,-40.70091 35.01264,-40.70091 z m 17.77245,34.83551 c 0,-15.8179 -6.04253,-23.81585 -18.12759,-23.81585 -13.1522,0 -20.08388,7.99795 -21.15016,23.81585 z"
   id="path50"
   inkscape:connector-curvature="0"
   style="fill:#000000;fill-opacity:1;stroke-width:0.87256747" /><path
   d="m 613.51102,321.58086 c 0,-12.44194 -1.77742,-18.30646 -1.77742,-19.0176 0,-2.8437 6.22053,-3.55397 8.17595,-3.55397 3.55397,0 4.44312,6.04253 5.33139,9.9525 6.39767,-7.1088 15.10676,-11.37479 23.46072,-11.37479 15.46277,0 24.52613,9.24224 24.52613,24.349 v 52.25283 c 0,2.13255 -1.77742,3.37684 -6.0434,3.37684 h -0.53227 c -4.26598,0 -6.0434,-1.24429 -6.0434,-3.37684 v -51.18655 c 0,-9.24224 -5.50939,-14.57363 -15.46277,-14.57363 -6.75367,0 -14.04048,4.08798 -19.01674,10.48652 v 55.27453 c 0,2.13256 -1.77742,3.37684 -6.0434,3.37684 h -0.53314 c -4.26598,0 -6.0434,-1.24428 -6.0434,-3.37684 z"
   id="path52"
   inkscape:connector-curvature="0"
   style="fill:#000000;fill-opacity:1;stroke-width:0.87256747" /><path
   d="m 700.24422,351.97239 c 2.6657,0 10.12964,6.93167 22.21644,6.93167 6.39767,0 14.21849,-1.95542 14.21849,-11.01965 0,-17.77333 -43.54461,-10.84165 -43.54461,-46.38743 0,-22.21644 18.12847,-30.92467 35.72379,-30.92467 15.99591,0 27.19269,5.50852 27.19269,10.48565 0,4.08885 -4.62111,13.15221 -8.35309,13.15221 -1.95455,0 -6.57566,-3.73197 -16.70617,-3.73197 -11.72993,0 -14.04049,5.50939 -14.04049,8.8871 0,17.24018 43.54287,10.30763 43.54287,45.67716 0,25.06014 -17.59533,33.41322 -34.1235,33.41322 -22.92671,0 -35.36865,-8.17595 -35.36865,-13.32934 0,-4.44486 6.04253,-13.15395 9.24223,-13.15395 z"
   id="path54"
   inkscape:connector-curvature="0"
   style="fill:#88ce02;stroke-width:0.87256747" /><path
   d="m 805.9933,297.409 c 23.99386,0 36.43492,14.39649 36.43492,40.52291 0,26.30441 -12.44106,40.70003 -36.43492,40.70003 -23.99387,0 -36.61294,-14.39562 -36.61294,-40.70003 0,-26.30442 12.61907,-40.52291 36.61294,-40.52291 z m 13.86335,40.52291 c 0,-15.10677 -4.26598,-22.92759 -13.86335,-22.92759 -9.59737,0 -14.04136,7.82082 -14.04136,22.92759 0,15.10676 4.44399,23.10471 14.04136,23.10471 9.59737,0 13.86335,-7.99708 13.86335,-23.10471 z"
   id="path56"
   inkscape:connector-curvature="0"
   style="fill:#88ce02;stroke-width:0.87256747" /><path
   d="m 890.94908,297.409 c 10.66365,0 25.06014,3.55484 25.06014,10.48651 0,2.84457 -5.50939,11.5528 -7.99795,11.5528 -0.53314,0 -1.42141,-0.53314 -2.6657,-1.06715 -2.66656,-1.42141 -6.75367,-3.37684 -13.15221,-3.37684 -12.08593,0 -17.06218,7.46569 -17.06218,22.92759 0,15.46189 4.62024,23.10471 16.17304,23.10471 7.10881,0 11.90705,-2.13168 14.75162,-3.55397 1.24429,-0.53314 2.13256,-0.88914 2.6657,-0.88914 3.37683,0 7.82082,8.53109 7.82082,11.37479 0,8.53022 -21.5053,10.48651 -26.30442,10.48651 -25.77041,0 -38.03434,-13.15221 -38.03434,-40.1669 0,-26.66042 11.72992,-40.87891 38.74548,-40.87891 z"
   id="path58"
   inkscape:connector-curvature="0"
   style="fill:#88ce02;stroke-width:0.87256747" /><path
   d="m 927.38314,268.61689 c 0,-3.19883 2.66656,-4.79825 9.06423,-4.79825 h 4.26598 c 6.39854,0 9.06423,1.59942 9.06423,4.79825 v 59.71765 l 0.53314,0.17713 18.3056,-27.36983 c 1.77742,-2.48856 4.79912,-2.84457 9.24223,-2.84457 h 5.50939 c 5.6874,0 8.53112,0.88915 8.53112,2.31056 0,0.71027 -0.5332,1.77742 -1.4223,3.0217 l -20.97217,29.85839 24.52617,38.92262 c 0.7111,1.42228 1.2442,2.31056 1.2442,3.1997 0,1.42141 -2.6657,2.30969 -8.53018,2.30969 h -6.39854 c -4.44311,0 -7.64195,-0.53314 -9.06423,-2.8437 l -20.97216,-34.65751 -0.53314,0.17713 v 32.52496 c 0,3.19883 -2.66569,4.79825 -9.06423,4.79825 h -4.26598 c -6.39767,0 -9.06423,-1.59942 -9.06423,-4.79825 V 268.61689 Z"
   id="path60"
   inkscape:connector-curvature="0"
   style="fill:#88ce02;stroke-width:0.87256747" /><path
   d="m 37.309336,336.6885 c -9.065104,4.26423 -33.0580919,23.45985 -37.67920936,29.14724 -4.79912114,5.6874 -6.22053364,-3.19883 -1.24428124,-17.95046 3.9091027,-11.90793 13.8633516,-28.08184 30.5695296,-41.94432 9.774501,-7.99795 31.280671,-19.54987 44.432008,-26.30442 2.666567,-1.42228 37.146067,-15.9959 67.893597,-23.28271 2.66657,-0.71115 -3.19883,4.44311 -4.08797,7.28681 -4.62112,13.50734 -96.863718,71.44757 -96.863718,71.44757 z"
   id="path64"
   inkscape:connector-curvature="0"
   style="stroke-width:0.87256747" /><path
   d="m 167.2294,499.66665 c 1.59941,9.59737 0.178,10.30851 -9.77451,11.5528 -9.95337,1.24428 -17.24018,-2.48857 -19.90588,-4.97626 -2.66656,-2.48943 -3.19883,-7.99795 -0.53314,-12.9742 1.60029,-3.19971 3.19971,-4.26599 4.08886,-8.17596 0.88827,-3.73197 1.59941,-4.62112 2.30968,-6.04253 0.71027,-1.24515 0.88915,-2.48944 1.06628,-11.19766 0.178,-8.70822 0,-25.06014 0.88915,-31.99094 0.88914,-7.10881 31.63667,3.19883 31.63667,3.19883 0,0 -7.28768,18.12846 -9.24223,22.57158 -1.95542,4.44398 -1.77742,12.9742 -1.77742,14.75162 0,1.77742 -0.71027,5.33139 -1.24428,5.50939 -0.53314,0.17714 1.77742,4.79825 0.71027,7.46482 -0.71114,2.48856 1.59941,8.8871 1.77655,10.30851 z"
   id="path66"
   inkscape:connector-curvature="0"
   style="stroke-width:0.87256747" /><path
   d="m 178.96019,227.91685 c -1.06715,-6.75367 0,-20.08476 1.42142,-22.21644 4.44398,-6.0434 27.90383,-6.75367 32.88096,0.35514 2.13255,3.19883 1.95455,10.66364 1.59941,15.46276 -0.35513,4.79825 -1.59941,15.10677 -1.77742,18.48447 -0.17713,2.48857 -25.94841,6.39767 -31.6358,-0.356 -1.60029,-1.77655 -2.48857,-11.72993 -2.48857,-11.72993 z"
   id="path68"
   inkscape:connector-curvature="0"
   style="stroke-width:0.87256747" /><path
   d="m 231.21302,482.42646 c 10.84166,7.82083 19.19474,9.24224 24.70413,12.08594 5.5094,2.84457 4.08798,8.35396 -5.15425,9.95337 -7.46482,1.42142 -19.19474,-1.42228 -27.01469,-1.42228 -7.81995,0 -25.23814,0.88914 -29.85926,-2.30969 -5.33139,-3.73197 -3.0217,-10.66452 -3.0217,-10.66452 1.42228,-3.9091 4.97625,-12.61907 3.90997,-19.72788 -1.06627,-7.1088 -2.48856,-11.01878 -5.15425,-17.59532 -2.6657,-6.57567 -4.62025,-22.74871 -2.13168,-23.63785 2.48856,-0.88915 1.77654,0 4.97625,0.71027 3.19883,0.71027 6.75367,1.77742 13.68535,1.77742 6.93167,0 14.57362,-1.06715 17.24018,-1.59942 2.6657,-0.53314 4.79825,-1.06715 3.90911,4.44311 -0.88828,5.5094 -3.55397,15.81791 -3.73197,23.81586 -0.17714,7.99795 -0.17714,17.24019 0.356,18.83961 0.53227,1.59941 4.44312,3.37683 7.28681,5.33138 z"
   id="path70"
   inkscape:connector-curvature="0"
   style="stroke-width:0.87256747" /><g
   id="g170"
   transform="matrix(0.87256748,0,0,0.87256748,-9.5318319,-8.424162)">
			<g
   id="g76">
				<path
   d="m 232.315,291.226 c -22.405,19.351 -65.791,24.646 -130.155,49.496 -16.499,6.314 -60.495,25.257 -71.087,45.015 35.645,-20.572 48.885,7.74 51.736,36.867 2.647,27.294 16.295,41.553 51.329,40.737 36.053,-0.814 47.052,20.165 57.032,44.812 19.35,-94.308 50.311,-112.639 70.271,-128.73 42.368,-34.424 -9.776,-95.123 -29.126,-88.197 z"
   id="path72"
   inkscape:connector-curvature="0"
   style="fill:#88ce02" />
				<path
   d="M 232.315,291.226 C 178.542,309.965 125.379,314.65 62.848,353.147 47.979,362.313 16.611,383.088 10.5,422.808 33.312,397.55 86.067,365.776 150.636,345.611 c 32.59,-10.185 56.422,-16.906 85.345,-28.109 -2.036,-13.037 -2.036,-18.129 -3.666,-26.276 z"
   id="path74"
   inkscape:connector-curvature="0"
   style="fill:#88ce02" />
			</g>
			<path
   d="m 300.957,402.846 c 0,0 -3.87,13.24 -11.61,17.518 0,0 -5.703,2.037 -17.109,-4.277 -3.259,-1.833 -5.703,-8.147 -5.5,-10.185 0.204,-4.889 3.259,-7.129 3.259,-7.129 0,0 3.26,-5.5 7.129,-5.296 3.871,0.203 10.389,0.814 12.426,-1.019 1.832,-2.037 11.813,3.666 11.405,10.388 z"
   id="path78"
   inkscape:connector-curvature="0" />
			<path
   d="m 217.853,274.727 c 0,0 -0.814,10.389 -2.24,16.906 -0.204,1.223 -6.314,1.833 -10.796,3.667 8.555,24.442 60.088,24.238 66.81,12.221 -3.259,-2.24 -9.777,-5.703 -12.832,-6.925 -3.056,-1.223 -2.852,-1.019 -3.056,-6.722 -0.203,-5.704 -0.611,-16.295 -1.019,-19.147 -0.407,-2.852 -31.979,-2.852 -36.867,0 z"
   id="path80"
   inkscape:connector-curvature="0" />
			<path
   d="m 219.89,274.727 c 0,0 0,5.907 -0.611,11.61 -0.203,2.648 -0.407,4.277 -0.814,6.314 -0.204,1.223 6.925,6.11 8.962,16.906 9.777,21.794 32.387,10.999 41.756,0.611 -3.259,-2.241 -8.555,-5.296 -14.665,-7.74 -3.056,-1.223 -1.63,-3.87 -1.833,-9.573 -0.204,-5.703 -1.019,-14.055 -1.426,-17.11 -0.409,-3.055 -26.48,-3.87 -31.369,-1.018 z"
   id="path82"
   inkscape:connector-curvature="0"
   style="fill:#efefef" />
			<path
   d="m 217.853,274.727 c 0,0 -0.204,3.667 -0.814,7.944 2.647,2.647 6.11,6.314 8.759,8.555 1.833,1.63 6.313,1.426 10.388,1.426 3.666,0 6.925,0.407 8.351,-0.407 3.26,-1.63 7.944,-5.703 10.592,-8.759 -0.203,-3.666 -0.407,-7.129 -0.61,-8.759 -0.206,-2.852 -31.778,-2.852 -36.666,0 z"
   id="path84"
   inkscape:connector-curvature="0" />
			<path
   d="m 236.389,290.207 c -2.445,0 -5.297,-0.203 -7.537,-0.611 -1.019,-0.203 -2.037,-0.814 -2.852,-1.222 -1.426,-1.019 -2.852,-2.24 -4.48,-3.463 -3.26,-2.444 -3.463,-3.87 -3.463,-4.48 1.426,-12.833 -0.408,-23.628 -0.408,-23.628 0,0 -1.426,-5.5 6.314,-6.926 7.74,-1.426 12.425,-1.629 12.425,-1.629 0,0 4.889,0 12.425,1.629 7.74,1.426 6.314,6.926 6.314,6.926 0,0 -1.833,10.795 -0.407,23.628 0,0.61 -0.203,2.036 -3.463,4.48 -2.852,2.037 -5.092,4.277 -7.332,4.685 -2.241,0.408 -5.093,0.611 -7.536,0.611 z"
   id="path86"
   inkscape:connector-curvature="0" />
			<path
   d="m 236.389,242.952 c -13.443,0 -16.092,3.666 -19.962,7.74 -0.814,1.018 -0.204,7.129 1.223,20.165 h 1.833 c 0,0 -1.223,-3.667 -1.019,-7.944 0.204,-4.277 1.019,-4.073 0.407,-5.092 -0.814,-1.223 -2.444,-3.26 1.223,-5.296 3.666,-2.037 9.369,1.629 16.295,1.833 6.925,-0.204 12.832,-3.87 16.498,-1.833 3.666,2.036 2.037,4.073 1.223,5.296 -0.815,1.222 0.203,0.814 0.407,5.092 0.203,4.277 -1.019,7.944 -1.019,7.944 h 1.833 c 1.222,-13.036 2.037,-18.739 1.426,-19.758 -3.463,-4.481 -6.925,-7.944 -20.368,-8.147 z"
   id="path88"
   inkscape:connector-curvature="0" />
			<path
   d="m 300.957,403.457 c 0,0 -3.87,12.425 -11.406,16.702 -1.63,-0.814 -1.426,-2.036 -2.852,-3.87 -0.408,-0.61 -1.834,-1.019 -2.444,-1.629 -0.611,-0.611 -0.407,-1.63 -1.426,-2.444 -0.815,-0.815 -1.426,-0.204 -2.241,-0.815 -0.814,-0.814 -1.019,-1.833 -1.629,-2.443 -0.408,-0.408 -2.037,-0.611 -2.444,-1.019 -1.019,-1.019 -9.98,-2.852 -9.573,-4.889 0.814,-3.056 2.444,-5.296 2.444,-5.296 0,0 3.87,-5.703 7.739,-5.5 3.87,0.204 7.537,1.019 9.574,-0.814 2.241,-2.038 14.87,5.499 14.258,12.017 z"
   id="path90"
   inkscape:connector-curvature="0" />
			<path
   d="m 274.478,313.428 c 0,0 12.832,-3.056 21.591,5.296 8.759,8.555 8.147,19.146 5.5,25.664 2.24,2.648 6.314,9.98 3.259,18.739 13.443,11.406 7.536,28.924 -4.481,40.534 0,0 -2.852,-10.592 -14.258,-11.203 0.407,-4.073 -10.592,-7.333 -5.5,-17.925 -7.74,-1.833 -7.536,-7.129 -8.758,-13.646 -1.019,-6.519 2.647,-47.459 2.647,-47.459 z"
   id="path92"
   inkscape:connector-curvature="0" />
			<path
   d="m 269.793,319.131 c 0,0 14.869,-7.536 23.628,1.019 8.758,8.555 6.313,17.924 3.666,24.442 2.24,2.647 7.536,10.185 4.277,19.146 -0.611,2.037 -5.092,2.037 -8.352,7.333 8.147,-4.686 13.24,-3.463 15.073,2.443 2.852,9.166 -3.463,20.165 -8.962,26.276 0,-0.204 -0.204,-0.408 -0.204,-0.611 -0.814,3.056 -1.833,8.962 -7.943,15.48 -3.056,3.259 -5.5,2.852 -8.963,2.037 -4.073,-1.019 -5.499,-2.853 -11.202,-5.907 -3.259,-1.833 -1.426,-4.074 -1.426,-5.907 0,-0.407 0.407,-1.019 1.019,-1.833 0.407,-1.019 1.629,-2.647 3.462,-4.481 0,0 2.648,-3.666 6.519,-3.463 3.87,0.204 7.943,-0.61 8.962,-1.629 v 0 c 0,-7.129 -8.147,-7.333 -5.296,-19.554 0.204,-0.611 1.223,-1.63 4.481,-2.037 -4.889,-1.019 -7.129,-1.223 -10.592,-4.481 -2.444,-2.24 -4.277,-5.092 -4.889,-8.758 -1.221,-6.314 -3.258,-39.515 -3.258,-39.515 z"
   id="path94"
   inkscape:connector-curvature="0"
   style="fill:#efefef" />
			<path
   d="m 226.815,306.299 c -1.222,-1.63 -7.536,-9.777 -19.554,-13.036 -3.463,-1.019 -5.703,1.833 -9.165,3.87 -1.019,-0.611 -5.5,-2.648 -7.944,-1.223 -2.444,1.425 -4.073,2.852 -6.518,3.87 -1.223,-0.611 -4.481,-0.611 -7.129,0.407 -2.648,0.815 -6.722,2.648 -10.592,7.944 -2.444,8.759 43.181,2.24 43.181,2.24 z"
   id="path96"
   inkscape:connector-curvature="0" />
			<path
   d="m 227.223,306.299 c -6.519,-2.241 -5.5,-9.777 -19.962,-10.999 -2.852,-0.204 -4.685,2.036 -6.722,3.462 1.019,1.019 2.037,2.648 2.648,4.277 -1.833,-2.036 -5.092,-4.685 -8.352,-5.296 -3.055,-0.61 -5.092,1.63 -8.351,3.26 0.61,0.61 1.222,1.629 2.036,2.852 -2.852,-1.833 -4.888,-2.444 -8.758,-1.019 -2.648,0.814 -7.74,3.055 -11.61,8.555 -2.444,8.759 41.145,-1.019 41.145,-1.019 z"
   id="path98"
   inkscape:connector-curvature="0"
   style="fill:#88ce02" />
			<path
   d="m 265.516,309.558 c 0,0 0,-2.241 -0.204,-4.277 0,-0.407 -1.629,-1.426 -1.629,-1.833 l -0.407,-0.408 c 0,0 3.259,-1.833 5.703,-0.814 2.647,0.814 4.073,4.277 4.073,4.277 4.685,-1.629 5.092,0.204 7.333,2.648 4.889,-1.019 5.499,0.814 8.555,5.296 0,0 -3.666,-0.611 -10.795,0.61 -6.926,1.018 -12.629,-5.703 -12.629,-5.499 z"
   id="path100"
   inkscape:connector-curvature="0" />
			<path
   d="m 264.701,308.539 c 0,0 1.222,-1.019 0.814,-1.223 2.24,-1.222 5.296,-2.647 6.722,1.223 4.685,-1.63 5.296,0.611 7.536,3.056 5.703,-2.648 6.11,0.61 6.518,2.036 -1.833,0 -4.48,0.204 -8.147,0.611 -6.925,1.019 -13.647,-5.907 -13.443,-5.703 z"
   id="path102"
   inkscape:connector-curvature="0"
   style="fill:#88ce02" />
			<path
   d="m 195.448,303.447 c 0,0 11.61,4.073 21.387,3.462 9.777,-0.814 26.479,-1.629 35.441,3.667 0,0 9.166,-3.26 17.721,-1.019 8.556,2.24 24.239,16.906 19.555,32.386 -0.408,1.019 -3.056,2.648 -6.111,3.667 0,0 1.63,6.925 -1.222,12.628 -2.852,5.5 -9.166,16.092 -9.37,30.757 v 0 c -0.203,2.444 -0.61,7.536 -1.018,9.98 -15.888,-0.61 -40.33,-6.518 -64.365,-6.11 0.203,-2.647 0.407,-4.277 0.611,-6.925 h 0.61 c -1.222,-6.722 -1.629,-10.185 -2.852,-15.277 -7.74,-4.888 -15.888,-10.591 -22.812,-21.387 -6.722,-10.796 12.425,-45.829 12.425,-45.829 z"
   id="path104"
   inkscape:connector-curvature="0" />
			<path
   d="m 274.071,413.438 c 0,0 12.629,45.219 -2.24,64.162 0,0 2.24,8.758 -2.852,18.128 -0.815,4.073 -1.834,7.74 -2.444,11.813 -2.648,16.906 -7.13,24.035 -8.352,51.125 l -12.222,-0.203 c 0,0 -1.426,-19.554 -5.703,-29.942 -2.443,-5.906 -12.018,-13.851 -11.609,-21.794 0.407,-6.111 1.629,-11.203 12.018,-19.351 0.814,-11.813 -11,-23.017 -9.166,-67.013 z"
   id="path106"
   inkscape:connector-curvature="0" />
			<path
   d="m 270.405,411.604 c 3.259,20.776 10.795,51.533 -2.852,66.605 0.61,2.852 1.018,6.926 0.203,11.61 -0.407,2.444 -1.222,5.092 -2.24,7.943 -2.037,4.889 -2.852,12.018 -3.463,16.295 -2.648,16.906 -2.648,17.722 -3.87,44.812 l -12.222,-0.204 c 0,0 -1.426,-19.554 -5.703,-29.941 -2.443,-5.907 -7.536,-10.999 -7.943,-18.943 -0.407,-6.11 3.87,-18.331 14.055,-17.924 -0.611,-24.646 -12.018,-19.758 -15.073,-71.087 z"
   id="path108"
   inkscape:connector-curvature="0"
   style="fill:#efefef" />
			<path
   d="m 195.448,303.447 c 0,0 4.481,1.426 9.369,1.833 4.889,0.407 10.185,0 14.869,-0.204 9.777,-0.814 23.628,-1.833 32.794,3.463 0,0 5.092,-1.63 10.592,-1.223 2.444,0.204 4.889,2.241 7.74,3.056 8.962,2.24 17.517,17.109 13.646,30.553 -0.407,1.019 -3.259,0 -6.518,1.019 0.61,2.852 1.019,9.37 -2.241,16.295 -3.462,6.926 -7.943,15.888 -7.129,32.998 -21.387,-1.019 -30.96,-2.444 -52.144,-3.463 -1.833,-7.537 -3.056,-15.073 -3.259,-18.943 2.852,-1.426 4.48,-2.647 6.722,-5.092 -6.11,1.019 -8.555,0.611 -12.222,-1.426 -3.666,-2.037 -10.184,-8.555 -13.443,-12.832 -0.407,-0.408 -2.647,6.313 -7.739,6.518 -1.834,-2.648 5.906,-10.185 4.48,-13.036 -5.091,-10.389 4.483,-39.516 4.483,-39.516 z"
   id="path110"
   inkscape:connector-curvature="0"
   style="fill:#efefef" />
			<path
   d="m 272.033,394.698 c 0,0 0.407,7.333 0.407,9.166 0,2.037 1.63,8.147 1.833,10.999 -2.24,3.87 -12.017,12.629 -29.738,15.888 -17.517,3.666 -40.737,-23.831 -40.737,-23.831 0.611,-2.648 2.648,-10.389 4.074,-14.462 0.204,-0.407 0.611,-1.426 0.611,-1.833 1.834,-2.648 63.55,4.073 63.55,4.073 z"
   id="path112"
   inkscape:connector-curvature="0" />
			<path
   d="m 267.553,395.31 c 0,5.092 0.814,8.759 1.426,12.018 1.018,5.907 2.647,9.777 2.647,13.647 0,11.813 -15.48,9.776 -28.517,10.184 -17.517,3.667 -32.386,-23.831 -32.386,-23.831 1.222,-4.685 2.037,-9.98 3.87,-14.462 v 0 c 0.203,-2.444 0.611,-5.499 0.814,-6.925 24.85,0 42.367,1.426 52.552,2.443 0.408,2.241 10e-4,6.111 -0.406,6.926 z"
   id="path114"
   inkscape:connector-curvature="0"
   style="fill:#efefef" />
			<path
   d="m 247.998,421.585 c 0,0 -10.795,-24.035 -43.182,-16.905 -7.739,21.794 -18.128,46.848 -11.406,73.938 -6.722,9.166 -14.462,14.259 -14.462,31.164 0,16.906 0.815,19.758 0.815,19.758 l 23.831,1.223 c 0,0 7.74,-9.98 10.795,-20.776 0.815,-3.056 1.63,-8.555 1.019,-14.869 0.814,-1.222 4.277,-4.073 4.685,-9.573 0,0 11.61,-6.11 18.332,-20.979 6.315,-13.446 4.685,-25.056 9.573,-42.981 z"
   id="path116"
   inkscape:connector-curvature="0" />
			<path
   d="m 247.998,421.585 c -0.61,-2.24 -8.758,-24.238 -38.904,-17.721 -17.72,47.256 -11.202,66.81 -8.555,75.364 -12.018,15.276 -17.517,18.535 -15.072,49.496 h 15.888 c 7.332,-11.61 8.962,-15.888 9.369,-31.164 0,-0.611 -2.24,1.222 -3.87,3.259 1.223,-6.314 4.685,-7.536 7.333,-11.406 1.222,-1.63 2.24,-4.074 2.24,-7.333 14.258,-9.573 19.554,-21.591 22.609,-34.016 2.445,-8.554 5.296,-22.609 8.962,-26.479 z"
   id="path118"
   inkscape:connector-curvature="0"
   style="fill:#efefef" />
			<path
   d="m 197.688,388.792 c 0,0 5.5,0.203 10.389,1.833 4.685,1.629 4.685,2.647 6.518,4.685 1.833,2.038 6.314,5.092 5.5,8.147 -0.408,1.63 -1.426,2.037 -2.852,3.463 -0.611,0.611 -5.093,5.499 -6.111,6.11 -0.611,0.407 -1.426,1.019 -2.037,1.426 -0.61,0.407 -2.443,1.63 -3.055,2.037 -2.037,1.019 -3.463,1.63 -5.703,1.426 0,0 -5.092,-0.204 -8.352,-3.666 0,0 -0.407,-1.63 0.408,-2.444 0,0 -4.278,-3.667 -5.5,-6.111 -1.223,-2.443 -1.223,-5.906 -0.407,-7.739 0.407,-1.835 8.35,-6.927 11.202,-9.167 z"
   id="path120"
   inkscape:connector-curvature="0" />
			<path
   d="m 202.781,586.979 -0.611,5.093 c 0,0 -1.833,2.24 -15.48,2.037 -13.851,-0.204 -17.517,-4.481 -18.739,-6.722 l -0.814,-5.296 c 0,0 2.648,-3.87 3.259,-3.87 4.481,0.407 19.758,6.518 30.35,8.147 1.016,0 1.219,0.407 2.035,0.611 z"
   id="path122"
   inkscape:connector-curvature="0" />
			<path
   d="m 232.315,576.591 c 0,2.24 -0.204,2.24 -0.204,4.481 2.444,1.833 8.556,2.852 20.165,2.647 16.906,-0.407 32.59,5.093 51.736,1.833 l 0.204,-3.666 -1.833,-0.203 -67.828,-5.5 z"
   id="path124"
   inkscape:connector-curvature="0" />
			<path
   d="m 247.184,583.72 c 1.63,0 3.259,0 5.092,0 11,-0.407 21.388,2.037 32.59,2.648 5.907,-0.204 13.24,-1.63 12.629,-5.907 l -57.847,-4.889 c -3.463,3.87 -0.816,7.129 7.536,8.148 z"
   id="path126"
   inkscape:connector-curvature="0" />
			<path
   d="m 180.782,497.968 c 1.833,1.222 14.258,8.555 34.423,7.536 -0.408,3.87 -0.204,11.407 -9.166,24.646 -4.481,6.518 -8.352,17.925 -9.166,32.387 0.204,3.259 2.037,6.11 -0.407,10.388 0.814,2.647 4.073,7.943 5.703,11.202 1.629,3.26 2.444,6.926 -8.352,7.13 -10.999,0.203 -28.72,-1.019 -26.275,-9.573 1.223,-4.481 4.685,-9.166 5.093,-11 0.407,-1.833 0.407,-7.332 3.869,-10.999 3.056,-10.184 2.037,-19.961 1.427,-29.127 -1.019,-9.574 -1.223,-24.85 2.851,-32.59 z"
   id="path128"
   inkscape:connector-curvature="0" />
			<path
   d="m 199.725,331.963 c 14.462,-19.351 2.24,-34.83 -20.979,-30.146 -9.37,1.833 -18.739,8.352 -19.351,20.165 -3.055,0.407 -9.98,0.814 -13.443,13.443 -2.647,9.777 -4.073,11.61 -8.759,16.498 -3.055,3.463 0.204,10.592 2.444,15.685 7.537,17.517 30.757,19.146 46.441,32.386 5.296,-1.426 10.795,-7.332 12.425,-11.202 -13.24,-15.685 -10.389,-21.795 -15.685,-29.942 5.704,-2.038 18.74,-9.981 16.907,-26.887 z"
   id="path130"
   inkscape:connector-curvature="0" />
			<path
   d="m 196.873,330.741 c 0.814,-1.223 2.24,-3.87 2.852,-4.889 0.204,-0.204 2.444,3.666 2.648,3.463 5.499,-8.963 6.925,-21.999 0.61,-23.221 -1.426,-0.204 -4.073,-0.814 -6.314,-1.63 -4.073,-1.426 -7.739,-1.426 -14.258,-0.203 -8.962,1.629 -17.924,8.147 -17.924,17.517 0,0.611 6.313,2.444 8.147,9.981 -3.056,-4.278 -8.352,-8.963 -14.666,-4.889 -6.722,4.277 -3.259,14.054 -12.221,24.238 -3.056,3.463 -2.648,7.537 0.61,15.684 5.296,12.833 30.35,19.758 43.997,31.979 3.259,-1.426 5.499,-4.685 7.129,-7.129 -9.166,-9.573 -12.833,-18.536 -15.48,-25.054 -3.259,-7.536 -6.926,-11.813 -14.055,-17.518 3.667,1.426 6.519,2.852 8.147,4.074 1.833,1.222 4.481,1.426 6.926,0.611 8.76,-3.053 13.445,-15.275 13.852,-23.014 z"
   id="path132"
   inkscape:connector-curvature="0"
   style="fill:#efefef" />
			<path
   d="m 285.477,334 c -0.611,7.74 -6.314,3.87 -9.369,2.444 -6.111,-2.648 -12.222,-4.481 -19.351,-4.481 -7.129,0 -16.295,0.611 -24.238,2.648 -10.999,3.055 -14.259,2.852 -19.147,0.407 -4.888,-2.648 -13.442,-9.166 -13.442,-9.166 0,0 -0.204,2.037 1.833,4.685 2.647,3.259 8.555,7.333 16.498,9.98 3.87,1.223 6.926,0.407 10.389,-0.407 18.128,-4.481 37.274,-5.296 53.365,4.481 0.815,0.407 3.667,-0.815 4.889,-2.648 1.628,-2.647 -1.427,-7.943 -1.427,-7.943 z"
   id="path134"
   inkscape:connector-curvature="0" />
			<path
   d="m 192.8,411.604 c 1.629,1.019 3.666,1.63 5.906,3.463 0,0 -1.833,0 -2.647,-0.814 -1.019,-0.611 -3.056,-2.444 -3.259,-2.649 z"
   id="path136"
   inkscape:connector-curvature="0"
   style="fill:#001423" />
			<path
   d="m 251.665,250.081 c -0.611,-1.833 -5.093,-5.093 -15.48,-5.093 -11.203,0 -14.462,3.463 -14.665,5.296 0,0.611 -0.815,7.13 -1.019,9.777 0,0 0,3.259 0.203,8.147 0.204,3.259 1.019,5.092 1.426,9.37 0.407,4.48 1.63,7.332 3.87,10.999 1.019,0.61 1.833,1.222 2.852,1.426 4.074,0.814 11.203,1.018 15.073,0 2.24,-0.611 5.092,-4.481 5.703,-7.944 0.814,-4.277 1.629,-7.333 1.833,-9.98 0.407,-2.647 0.611,-8.555 0.814,-10.185 0.612,-4.48 -0.407,-11.406 -0.61,-11.813 z"
   id="path138"
   inkscape:connector-curvature="0"
   style="fill:#efefef" />
			<path
   d="m 230.278,501.838 c 0,0 10.796,4.685 37.479,0.611 0,0 -7.536,37.886 -4.073,56.828 0,0 3.462,4.889 29.127,14.258 0,0 11.406,2.852 10.999,8.556 0,0 0.407,1.222 -13.443,0.814 -13.85,-0.408 -26.887,-2.852 -36.053,-2.852 -9.166,0 -18.943,0.407 -20.572,-2.24 -1.833,-2.444 0.407,-8.759 3.055,-12.426 2.853,-3.869 2.037,-6.722 1.834,-13.646 -0.613,-18.128 -14.464,-36.867 -8.353,-49.903 z"
   id="path140"
   inkscape:connector-curvature="0" />
			<path
   d="m 228.037,505.301 c -1.426,2.037 0.203,9.776 2.24,17.313 2.037,7.536 6.519,12.018 7.537,24.442 1.018,12.221 1.222,13.851 -2.241,20.979 -3.463,7.128 -4.481,13.647 7.536,13.851 12.017,0.204 18.536,-0.204 30.757,1.63 12.222,1.833 16.499,2.444 23.221,1.426 6.722,-1.018 8.147,-3.26 5.296,-5.296 -2.852,-2.037 -14.666,-4.277 -19.758,-8.352 -4.889,-3.666 -18.739,-9.777 -18.942,-11.406 -0.611,-5.5 -0.815,-25.461 0.203,-31.979 1.019,-6.519 2.444,-15.888 2.852,-18.332 0.408,-2.444 2.444,-4.889 -1.019,-4.074 -3.462,0.814 -16.498,2.648 -26.275,2.037 -9.777,-0.61 -10.795,-2.851 -11.407,-2.239 z"
   id="path142"
   inkscape:connector-curvature="0"
   style="fill:#88ce02" />
			<path
   enable-background="new    "
   d="m 234.963,568.24 c 3.462,1.629 8.555,2.852 12.425,2.852 0,0 -1.427,6.722 0.814,10.795 2.24,4.074 -16.295,1.63 -16.295,1.63 l -0.814,-14.462 z"
   id="path144"
   inkscape:connector-curvature="0"
   style="opacity:0.3" />
			<path
   enable-background="new    "
   d="m 288.94,585.757 c 3.259,-1.019 5.5,-4.685 2.852,-8.147 -2.852,-3.463 -5.296,-4.074 -1.63,-4.277 3.667,-0.204 17.11,7.943 17.11,7.943 l -6.926,6.314 z"
   id="path146"
   inkscape:connector-curvature="0"
   style="opacity:0.3" />
			<path
   enable-background="new    "
   d="m 227.426,513.244 c 4.685,1.63 11.814,2.037 17.925,1.833 6.11,-0.203 15.276,-1.019 21.184,-3.055 5.906,-2.037 3.462,2.24 3.462,2.24 l -3.259,3.056 c 0,0 -7.74,3.055 -20.368,2.852 -14.869,-0.204 -19.351,-1.833 -19.351,-1.833 z"
   id="path148"
   inkscape:connector-curvature="0"
   style="opacity:0.3" />
			<path
   enable-background="new    "
   d="m 227.833,523.429 c 4.686,1.63 11.814,2.037 17.925,1.833 6.11,-0.203 14.258,-0.203 20.165,-2.444 2.444,-0.814 1.019,2.648 1.019,2.648 l -1.019,1.833 c 0,0 -7.944,2.852 -20.369,2.647 -14.869,-0.203 -17.517,-1.426 -17.517,-1.426 z"
   id="path150"
   inkscape:connector-curvature="0"
   style="opacity:0.3" />
			<path
   d="m 230.278,501.838 c 0,0 17.721,6.314 37.683,2.037 0,0 -7.74,36.46 -4.277,55.199 0,0 3.462,4.888 29.127,14.258 0,0 11.406,2.852 10.999,8.555 0,0 0.407,1.223 -13.443,0.814 -13.851,-0.407 -26.887,-2.852 -36.053,-2.852 -9.166,0 -18.943,0.408 -20.572,-2.24 -1.833,-2.444 0.407,-8.759 3.055,-12.425 2.853,-3.87 2.037,-6.722 1.834,-13.647 -0.613,-17.924 -14.464,-36.663 -8.353,-49.699 z"
   id="path152"
   inkscape:connector-curvature="0"
   style="fill-opacity:0" />
			<path
   d="m 230.278,501.838 c 0,0 17.721,6.11 37.683,1.833 0,0 -7.74,36.664 -4.277,55.403 0,0 3.462,4.888 29.127,14.258 0,0 11.406,2.852 10.999,8.555 0,0 0.407,1.223 -13.443,0.814 -13.851,-0.407 -27.091,-4.277 -36.053,-2.852 -9.573,1.63 -18.943,1.019 -20.572,-2.24 -1.426,-2.647 0.407,-8.759 3.055,-12.425 2.853,-3.87 2.037,-6.722 1.834,-13.647 -0.613,-17.924 -14.464,-36.663 -8.353,-49.699 z"
   id="path154"
   inkscape:connector-curvature="0"
   style="fill-opacity:0" />
			<path
   d="m 214.39,380.645 c 0,1.426 15.888,9.369 24.646,10.999 8.759,1.629 27.091,0 29.942,-0.611 l -0.408,2.852 c 0,0 -21.794,3.259 -38.496,-1.222 -16.703,-4.481 -14.869,-5.5 -14.869,-5.5 z"
   id="path156"
   inkscape:connector-curvature="0" />
			<g
   id="g162">
				<path
   d="m 180.374,554.389 c 2.444,1.223 11.203,3.463 16.906,2.241 0.814,-0.204 0,-14.055 2.241,-20.369 3.259,-8.759 8.555,-15.888 10.998,-31.367 -8.555,-0.815 -18.331,-3.056 -23.424,-4.686 -6.517,19.962 -4.276,37.071 -6.721,54.181 z"
   id="path158"
   inkscape:connector-curvature="0"
   style="fill:#efefef" />
				<path
   d="m 194.022,567.222 c 1.426,0.407 2.444,2.036 2.852,1.019 0.814,-1.834 -1.426,-5.296 -1.63,-7.74 0,-0.204 0,0 0,-0.204 -1.833,-1.629 -14.258,-1.833 -13.443,-1.019 -1.426,2.648 -3.666,2.241 -4.48,7.537 -0.407,2.647 2.852,0.407 5.906,0.203 -5.499,3.666 -11.813,8.352 -12.832,12.425 -1.222,5.703 0.815,7.333 6.926,10.389 5.296,1.222 11.61,1.426 16.498,1.222 5.5,-1.019 6.519,-3.666 4.889,-7.333 -2.446,-5.5 -4.075,-12.629 -4.686,-16.499 z"
   id="path160"
   inkscape:connector-curvature="0"
   style="fill:#efefef" />
			</g>
			<path
   d="m 196.262,302.632 c 6.722,3.87 16.092,2.852 19.554,2.648 0.815,0 8.963,-1.426 9.37,-1.223 0.814,0.204 0.814,0.815 0.814,0.815 0,0 -3.055,1.629 -9.98,2.036 -6.518,0.407 -14.258,0 -18.535,-2.036 -5.093,-2.24 -1.223,-2.24 -1.223,-2.24 z"
   id="path164"
   inkscape:connector-curvature="0" />
			<path
   d="m 265.516,306.502 c 1.222,0.814 9.166,3.87 12.629,7.536 3.055,3.26 1.426,3.056 0.814,2.241 -0.814,-1.019 -7.129,-5.296 -9.573,-6.314 -2.444,-1.018 -5.5,-2.852 -5.5,-3.259 0,-0.407 1.63,-0.204 1.63,-0.204 z"
   id="path166"
   inkscape:connector-curvature="0" />
			<path
   d="m 195.243,391.032 c 5.907,-0.407 12.018,1.019 15.888,5.092 2.037,2.037 5.296,4.277 4.889,6.314 0,0.611 -1.223,2.241 -2.24,3.463 -0.611,0.814 -2.444,2.647 -3.056,3.259 -0.814,0.611 -3.666,2.852 -4.277,3.259 -0.611,0.408 -1.426,1.427 -2.037,1.63 -2.036,1.019 -4.277,0.204 -6.314,-0.814 -2.036,-1.019 0.408,-1.223 -1.833,-2.852 -5.499,-3.87 -8.555,-6.519 -6.314,-14.055 0.203,-1.426 2.443,-3.056 5.294,-5.296 z"
   id="path168"
   inkscape:connector-curvature="0"
   style="fill:#efefef" />
		</g><path
   enable-background="new    "
   d="m 115.51058,292.07761 c -15.995907,6.39854 -56.696819,26.66043 -68.24874,32.88096 v 0 c 9.59737,6.04253 14.040484,20.61615 15.462769,35.36778 0.177131,1.42228 0.355135,2.66657 0.533138,4.08798 0.177132,1.24428 0.355135,2.13255 0.532267,2.66656 0,0.17801 0,0.53314 0.178003,0.71027 10.486516,-28.6141 47.986843,-58.82849 49.409133,-61.13905 0.71027,-1.06628 -0.88915,-5.6874 1.59941,-10.12964 3.19971,-5.68914 9.42112,-8.1777 0.53402,-4.44486 z"
   id="path172"
   inkscape:connector-curvature="0"
   style="opacity:0.4;stroke-width:0.87256747" /><path
   enable-background="new    "
   d="m 153.54492,426.26453 c 8.17508,-16.35104 8.35309,-31.99181 8.17508,-50.29828 0,-7.64282 5.5094,-18.48447 2.66657,-15.46277 -10.66452,11.90706 -37.5012,34.30237 -56.87395,35.54578 27.1927,-0.88827 37.85634,12.79708 46.0323,30.21527 z"
   id="path174"
   inkscape:connector-curvature="0"
   style="opacity:0.4;stroke-width:0.87256747" /><path
   d="m 31.621068,340.06446 c 10.130509,-7.28681 62.561345,-35.18977 75.180412,-39.10062 12.6182,-4.08798 8.70822,-8.8871 8.70822,-8.8871 0,0 -51.186548,22.03844 -81.756077,41.05604"
   id="path176"
   inkscape:connector-curvature="0"
   style="stroke-width:0.87256747" /><path
   enable-background="new    "
   d="m 180.91474,288.70078 c -4.08797,-1.59942 -7.28681,3.1997 -6.22053,7.82082 1.06715,4.62112 10.66452,9.7745 10.13051,26.65955 -0.35514,13.86335 -3.37684,19.54988 -3.37684,19.54988 l -6.75367,-8.53022 c 0,0 -1.06628,-19.19562 -3.37684,-22.03931 -2.30968,-2.8437 -9.59737,-7.99796 -12.44106,-10.66365 -2.8437,-2.66657 3.19883,-6.22053 2.84369,-11.19766 -0.35513,-4.79825 3.02171,-14.39562 3.02171,-14.39562 z"
   id="path178"
   inkscape:connector-curvature="0"
   style="opacity:0.4;stroke-width:0.87256747" /><path
   enable-background="new    "
   d="m 205.61975,364.41346 c -0.35514,13.32934 2.66656,33.05809 3.90997,42.47833 1.24428,9.41936 2.8437,10.1305 0,14.39649 -2.8437,4.08798 -6.57567,10.84165 -6.57567,10.84165 l -12.26393,-1.06715 c 0,0 9.77537,-12.44107 10.30764,-14.75163 0.53314,-2.30968 -4.97626,-19.90501 -4.97626,-19.90501 z"
   id="path180"
   inkscape:connector-curvature="0"
   style="opacity:0.4;stroke-width:0.87256747" /><path
   enable-background="new    "
   d="m 181.98189,240.00278 c 2.48857,5.50852 5.5094,7.99709 10.30764,9.59737 2.8437,1.06628 14.04049,2.48857 18.48447,-2.48856 1.95455,-2.31056 0.71027,-8.53109 0.71027,-8.53109 l -10.13051,8.17508 -13.68534,-2.48769 -1.59942,-4.08797 z"
   id="path182"
   inkscape:connector-curvature="0"
   style="opacity:0.4;stroke-width:0.87256747" /><path
   stroke-miterlimit="10"
   d="m 183.0473,252.26585 c 4.62112,3.0217 16.17391,5.8654 19.37274,6.39853 3.19883,0.71027 8.35309,-3.37683 10.84165,-4.44311 2.66657,-1.24428 7.28769,-1.95542 12.61907,2.8437 0.53314,0.53314 -1.24428,2.8437 -1.24428,2.8437 -0.178,-0.17801 -1.24428,-0.17801 -2.66656,-0.88915 -1.42142,-0.71027 -2.6657,-1.24428 -4.79825,-1.06628 -8.8871,1.06628 -10.30851,4.08798 -18.12846,2.30969 -7.81995,-1.77829 -9.77538,-3.19883 -17.41732,-2.8437"
   id="path184"
   inkscape:connector-curvature="0"
   style="fill:#88ce02;stroke:#000000;stroke-width:1.38389206;stroke-linejoin:round;stroke-miterlimit:10" /><path
   d="m 181.44788,252.79899 c 5.8654,2.48856 17.24019,5.15425 20.43902,5.86539 3.19884,0.71115 8.35309,-2.48856 10.84165,-4.08797 4.44399,-2.8437 10.13051,-0.53314 12.79708,2.48856 1.77655,1.95455 2.48856,3.19883 2.48856,3.73197 0,0.71027 -2.13255,0 -2.13255,0 -1.24428,-0.53314 -2.66657,-0.71027 -3.73197,-1.42229 -1.42229,-0.71027 -2.84457,-1.77654 -4.97626,-1.59941 -8.8871,1.06715 -10.66452,4.08798 -18.30646,2.31056 -7.64195,-1.77742 -9.59737,-3.37684 -17.77246,-2.84457"
   id="path186"
   inkscape:connector-curvature="0"
   style="fill:#88ce02;stroke-width:0.87256747" /><path
   d="m 153.90005,418.79884 c -0.35513,-0.35513 0.35514,-0.71027 0,-0.71027 -2.30968,0 -5.50939,-1.77742 -7.28768,-4.26598 -7.64194,-11.01878 -18.8396,-18.30559 -39.10062,-17.77245 -30.392395,0.71027 -42.478328,-11.72993 -44.788014,-35.54579 -1.244281,-12.9742 -4.799121,-25.59327 -12.085932,-32.70295 l -4.265982,2.66656 c 8.175084,7.10881 10.841651,18.6616 12.61907,34.47951 2.843698,23.81585 22.038437,34.83551 44.432878,35.19064 23.28272,0.35514 31.63581,5.15426 40.34403,16.88506 2.8437,3.73197 6.0434,4.97625 8.53109,5.50939 z"
   id="path188"
   inkscape:connector-curvature="0"
   style="stroke-width:0.87256747" /><path
   enable-background="new    "
   d="m 236.36728,304.51868 c 0.53314,2.66569 1.95455,7.81995 4.79825,10.30764 1.24515,1.24428 1.42228,1.59941 0.35601,1.59941 -1.06715,0 -8.8871,-0.35513 -8.8871,-0.35513 l -2.13256,-3.73197 z"
   id="path190"
   inkscape:connector-curvature="0"
   style="opacity:0.4;stroke-width:0.87256747" />
</svg>