<svg width="96" height="19" viewBox="0 0 96 19" fill="none" xmlns="http://www.w3.org/2000/svg">
<path d="M0.125 18V0.545454H4.86364V7.36364H11.1364V0.545454H15.875V18H11.1364V11.1818H4.86364V18H0.125ZM28.8807 18L23.5284 10.9432H22.8636V18H18.125V0.545454H22.8636V7.125H23.4773L28.4886 0.545454H34.4545L27.8068 8.93182L34.8295 18H28.8807ZM51.9091 9.27273C51.9091 11.2159 51.5313 12.8551 50.7756 14.1903C50.0199 15.5199 49 16.5284 47.7159 17.2159C46.4318 17.8977 45 18.2386 43.4205 18.2386C41.8295 18.2386 40.392 17.8949 39.108 17.2074C37.8295 16.5142 36.8125 15.5028 36.0568 14.1733C35.3068 12.8381 34.9318 11.2045 34.9318 9.27273C34.9318 7.32955 35.3068 5.69318 36.0568 4.36364C36.8125 3.02841 37.8295 2.01989 39.108 1.33807C40.392 0.650568 41.8295 0.306818 43.4205 0.306818C45 0.306818 46.4318 0.650568 47.7159 1.33807C49 2.01989 50.0199 3.02841 50.7756 4.36364C51.5313 5.69318 51.9091 7.32955 51.9091 9.27273ZM47.0341 9.27273C47.0341 8.22727 46.8949 7.34659 46.6165 6.63068C46.3438 5.90909 45.9375 5.36364 45.3977 4.99432C44.8636 4.61932 44.2045 4.43182 43.4205 4.43182C42.6364 4.43182 41.9744 4.61932 41.4347 4.99432C40.9006 5.36364 40.4943 5.90909 40.2159 6.63068C39.9432 7.34659 39.8068 8.22727 39.8068 9.27273C39.8068 10.3182 39.9432 11.2017 40.2159 11.9233C40.4943 12.6392 40.9006 13.1847 41.4347 13.5597C41.9744 13.929 42.6364 14.1136 43.4205 14.1136C44.2045 14.1136 44.8636 13.929 45.3977 13.5597C45.9375 13.1847 46.3438 12.6392 46.6165 11.9233C46.8949 11.2017 47.0341 10.3182 47.0341 9.27273ZM55.625 18.2727C54.9659 18.2727 54.4006 18.0426 53.929 17.5824C53.4631 17.1165 53.233 16.5511 53.2386 15.8864C53.233 15.2386 53.4631 14.6847 53.929 14.2244C54.4006 13.7642 54.9659 13.5341 55.625 13.5341C56.25 13.5341 56.8011 13.7642 57.2784 14.2244C57.7614 14.6847 58.0057 15.2386 58.0114 15.8864C58.0057 16.3295 57.8892 16.733 57.6619 17.0966C57.4403 17.4545 57.1506 17.7415 56.7926 17.9574C56.4347 18.1676 56.0455 18.2727 55.625 18.2727ZM60.5 18V0.545454H68.0341C69.3295 0.545454 70.4631 0.801136 71.4347 1.3125C72.4063 1.82386 73.1619 2.54261 73.7017 3.46875C74.2415 4.39489 74.5114 5.47727 74.5114 6.71591C74.5114 7.96591 74.233 9.0483 73.6761 9.96307C73.125 10.8778 72.3494 11.5824 71.3494 12.0767C70.3551 12.571 69.1932 12.8182 67.8636 12.8182H63.3636V9.13636H66.9091C67.4659 9.13636 67.9403 9.03977 68.3324 8.84659C68.7301 8.64773 69.0341 8.36648 69.2443 8.00284C69.4602 7.6392 69.5682 7.21023 69.5682 6.71591C69.5682 6.21591 69.4602 5.78977 69.2443 5.4375C69.0341 5.07955 68.7301 4.80682 68.3324 4.61932C67.9403 4.42614 67.4659 4.32954 66.9091 4.32954H65.2386V18H60.5ZM83.75 2.28409H88.4205C89.8864 2.28409 91.1847 2.58239 92.3153 3.17898C93.4517 3.77557 94.3409 4.62216 94.983 5.71875C95.6307 6.81534 95.9545 8.11364 95.9545 9.61364C95.9545 11.0341 95.6307 12.2642 94.983 13.304C94.3409 14.3437 93.4517 15.1477 92.3153 15.7159C91.1847 16.2841 89.8864 16.5682 88.4205 16.5682H83.75C82.2727 16.5682 80.9631 16.2869 79.821 15.7244C78.6847 15.1619 77.7926 14.358 77.1449 13.3125C76.5028 12.267 76.1818 11.0227 76.1818 9.57955C76.1818 8.07955 76.5085 6.78409 77.1619 5.69318C77.821 4.60227 78.7188 3.76136 79.8551 3.17045C80.9972 2.57955 82.2955 2.28409 83.75 2.28409ZM83.75 6.17045C83.1591 6.17045 82.6136 6.28125 82.1136 6.50284C81.6193 6.72443 81.2216 7.08523 80.9205 7.58523C80.625 8.08523 80.4773 8.75 80.4773 9.57955C80.4773 10.3409 80.6307 10.9489 80.9375 11.4034C81.25 11.858 81.6534 12.1847 82.1477 12.3835C82.6477 12.5824 83.1818 12.6818 83.75 12.6818H88.4545C89.0341 12.6818 89.5625 12.5795 90.0398 12.375C90.5227 12.1648 90.9063 11.8352 91.1903 11.3864C91.4801 10.9318 91.625 10.3409 91.625 9.61364C91.625 8.78409 91.4801 8.11648 91.1903 7.6108C90.9063 7.10511 90.5227 6.73864 90.0398 6.51136C89.5625 6.28409 89.0341 6.17045 88.4545 6.17045H83.75ZM88.2841 0.238636V18.7159H83.8523V0.238636H88.2841Z" fill="#392396"/>
</svg>
