<?xml version="1.0" encoding="utf-8"?>
<!-- Generator: Adobe Illustrator 24.0.0, SVG Export Plug-In . SVG Version: 6.00 Build 0)  -->
<svg version="1.1" id="Слой_1" xmlns="http://www.w3.org/2000/svg" xmlns:xlink="http://www.w3.org/1999/xlink" x="0px" y="0px"
	 viewBox="0 0 500 188.591" enable-background="new 0 0 500 188.591" xml:space="preserve">
<g>
	<path fill="#94D4D2" d="M434.24,57.263c-1.311-0.327-2.421-0.461-3.83-0.461c-6.803,0-12.979,3.604-16.929,9.561l-0.198-6.248
		c-0.032-1.019-0.868-1.829-1.889-1.829H401.01c-0.522,0-1.022,0.216-1.379,0.599c-0.357,0.381-0.54,0.895-0.506,1.416
		c0.371,5.557,0.537,11.8,0.537,20.24v44.908c0,1.045,0.846,1.891,1.889,1.891h11.733c1.043,0,1.89-0.846,1.89-1.891V90.654
		c0-1.889,0.259-3.697,0.509-5.192c1.535-8.442,6.92-13.688,14.054-13.688c1.415,0,2.502,0.108,3.637,0.361
		c0.556,0.123,1.145-0.012,1.592-0.372c0.447-0.358,0.708-0.899,0.708-1.473V59.096C435.672,58.229,435.081,57.473,434.24,57.263"/>
	<path fill="#94D4D2" d="M499.462,107.647V60.175c0-1.043-0.846-1.89-1.889-1.89h-11.868c-1.044,0-1.891,0.847-1.891,1.89v40.054
		c0,1.879-0.337,3.792-0.937,5.352c-1.82,4.437-6.552,9.617-13.897,9.617c-5.44,0-12.674-1.957-12.674-18.88V60.175
		c0-1.043-0.847-1.89-1.891-1.89h-11.868c-1.043,0-1.889,0.847-1.889,1.89v38.166c0,27.511,17.071,30.481,24.411,30.481
		c10.207,0,16.639-4.864,20.27-9.021l0.366,5.767c0.062,0.995,0.888,1.77,1.885,1.77h10.52c0.526,0,1.029-0.22,1.387-0.607
		c0.359-0.388,0.538-0.906,0.496-1.432C499.632,120.696,499.462,115.086,499.462,107.647"/>
	<path fill="#94D4D2" d="M416.688,156.066c0,9.702-7.865,17.567-17.568,17.567c-9.702,0-17.567-7.865-17.567-17.567
		c0-9.702,7.865-17.568,17.567-17.568C408.823,138.498,416.688,146.364,416.688,156.066"/>
	<path fill="#FD9C96" d="M30.192,94.295C30.192,42.217,72.41,0,124.487,0c52.078,0,94.296,42.217,94.296,94.296
		c0,52.078-42.218,94.296-94.296,94.296C72.41,188.591,30.192,146.374,30.192,94.295"/>
	<path fill="#FD9C96" d="M0,32.525c0-9.702,7.865-17.567,17.568-17.567c9.702,0,17.567,7.865,17.567,17.567
		c0,9.702-7.865,17.567-17.567,17.567C7.865,50.092,0,42.226,0,32.525"/>
	<path fill="#FFFFFF" d="M124.745,59.769h-14.701c-0.792,0-1.499,0.493-1.773,1.234L97.746,89.477
		c-1.974,5.509-4.306,12.141-6.013,17.221c-0.854-2.605-1.804-5.387-2.689-7.971c-0.599-1.747-1.158-3.379-1.633-4.803
		L75.543,61.018c-0.27-0.749-0.982-1.249-1.777-1.249H59.201c-0.99,0-1.811,0.762-1.885,1.75l-4.855,65.274
		c-0.039,0.523,0.143,1.04,0.499,1.425c0.358,0.385,0.86,0.604,1.385,0.604h10.924c1.006,0,1.835-0.787,1.888-1.791l1.617-30.875
		c0.241-4.261,0.472-8.842,0.673-13.346c1.239,4.18,2.588,8.546,3.754,12.126l11.599,32.232c0.269,0.749,0.98,1.25,1.778,1.25h8.631
		c0.783,0,1.485-0.484,1.765-1.217l12.552-32.931c1.81-4.959,3.169-8.788,4.311-12.19c0.177,3.357,0.373,6.653,0.554,9.738
		l1.721,35.205c0.048,1.009,0.879,1.8,1.887,1.8h11.329c0.524,0,1.025-0.218,1.383-0.601c0.356-0.384,0.54-0.898,0.502-1.422
		l-4.585-65.273C126.56,60.537,125.738,59.769,124.745,59.769"/>
	<path fill="#FFFFFF" d="M140.574,64.39c-0.727,0.472-1.04,1.38-0.757,2.2l2.697,7.821c0.189,0.55,0.621,0.982,1.17,1.171
		c0.548,0.189,1.155,0.117,1.642-0.2c4.406-2.849,10.374-4.551,15.967-4.551c8.533,0,12.771,4.149,12.94,12.679
		c-15.241,0.182-26.28,3.569-32.824,10.078c-4.256,4.234-6.415,9.646-6.415,16.082c0,13.547,10.991,20.635,21.848,20.635
		c7.345,0,14.165-2.742,18.936-7.482l0.495,4.325c0.11,0.953,0.917,1.674,1.878,1.674h10.79c0.559,0,1.091-0.249,1.45-0.679
		c0.36-0.43,0.509-0.997,0.409-1.549c-0.705-3.878-1.048-8.885-1.048-15.306v-24.41c0-18.439-9.484-28.593-26.704-28.593
		C154.734,58.285,146.543,60.51,140.574,64.39 M174.508,95.49v9.459c0,0.934-0.206,2.063-0.573,3.166
		c-1.519,4.45-6.095,9.645-13.99,9.645c-5.826,0-9.304-3.529-9.304-9.439c0-3.076,0.96-5.51,2.934-7.443
		c3.652-3.578,10.672-5.388,20.883-5.388H174.508z"/>
	<path fill="#94D4D2" d="M386.496,94.295c0,52.078-42.218,94.296-94.296,94.296c-52.078,0-94.297-42.217-94.297-94.296
		C197.904,42.217,240.122,0,292.2,0C344.278,0,386.496,42.217,386.496,94.295"/>
	<path fill="#FFFFFF" d="M298.942,59.769h-14.701c-0.792,0-1.498,0.493-1.773,1.234l-10.524,28.474
		c-1.974,5.509-4.307,12.141-6.013,17.221c-0.854-2.605-1.805-5.387-2.69-7.971c-0.598-1.747-1.158-3.379-1.633-4.803
		l-11.868-32.906c-0.27-0.749-0.981-1.249-1.777-1.249h-14.565c-0.989,0-1.811,0.762-1.885,1.75l-4.855,65.274
		c-0.039,0.523,0.142,1.04,0.498,1.425c0.359,0.385,0.86,0.604,1.385,0.604h10.925c1.005,0,1.834-0.787,1.887-1.791l1.618-30.875
		c0.241-4.261,0.472-8.842,0.673-13.346c1.238,4.18,2.587,8.546,3.755,12.126l11.598,32.232c0.269,0.749,0.981,1.25,1.778,1.25
		h8.631c0.784,0,1.485-0.484,1.765-1.217l12.552-32.931c1.81-4.959,3.169-8.788,4.312-12.19c0.176,3.357,0.372,6.653,0.553,9.738
		l1.721,35.205c0.048,1.009,0.879,1.8,1.887,1.8h11.33c0.523,0,1.024-0.218,1.382-0.601c0.357-0.384,0.54-0.898,0.502-1.422
		l-4.584-65.273C300.758,60.537,299.935,59.769,298.942,59.769"/>
	<path fill="#FFFFFF" d="M314.772,64.39c-0.727,0.472-1.04,1.38-0.756,2.2l2.696,7.821c0.189,0.55,0.621,0.982,1.17,1.171
		c0.549,0.189,1.155,0.117,1.643-0.2c4.406-2.849,10.374-4.551,15.966-4.551c8.534,0,12.771,4.149,12.941,12.679
		c-15.241,0.182-26.28,3.569-32.825,10.078c-4.255,4.234-6.415,9.646-6.415,16.082c0,13.547,10.991,20.635,21.848,20.635
		c7.345,0,14.165-2.742,18.936-7.482l0.495,4.325c0.11,0.953,0.917,1.674,1.878,1.674h10.79c0.56,0,1.091-0.249,1.451-0.679
		c0.359-0.43,0.509-0.997,0.408-1.549c-0.705-3.878-1.048-8.885-1.048-15.306v-24.41c0-18.439-9.484-28.593-26.704-28.593
		C328.932,58.285,320.741,60.51,314.772,64.39 M348.706,95.49v9.459c0,0.934-0.206,2.063-0.573,3.166
		c-1.519,4.45-6.094,9.645-13.99,9.645c-5.826,0-9.303-3.529-9.303-9.439c0-3.076,0.959-5.51,2.933-7.443
		c3.653-3.578,10.672-5.388,20.884-5.388H348.706z"/>
</g>
</svg>
