<?xml version="1.0" encoding="utf-8"?>
<!-- Generator: Adobe Illustrator 24.0.0, SVG Export Plug-In . SVG Version: 6.00 Build 0)  -->
<svg version="1.1" id="Слой_1" xmlns="http://www.w3.org/2000/svg" xmlns:xlink="http://www.w3.org/1999/xlink" x="0px" y="0px"
	 viewBox="0 0 289.3 54" style="enable-background:new 0 0 289.3 54;" xml:space="preserve">
<style type="text/css">
	.st0{fill:#FFFFFF;}
	.st1{fill:#C90A22;}
	.st2{font-family:'Calibri-Light';}
	.st3{font-size:15px;}
</style>
<rect width="289.3" height="54"/>
<image style="display:none;overflow:visible;enable-background:new    ;" width="332" height="54" xlink:href="../../фото для сайта/Обновление сайта RR/Лого/logo-site_2.png" >
</image>
<g>
	<polygon class="st0" points="61.7,12.2 57.2,18.7 61.7,25.1 	"/>
	<g>
		<rect x="7.4" y="6.4" class="st1" width="3.4" height="24.5"/>
		<rect x="3.6" y="6.4" class="st1" width="2.3" height="24.5"/>
		<rect x="0.7" y="6.4" class="st1" width="1.2" height="24.5"/>
	</g>
	<polygon class="st1" points="53.9,18.7 53.6,18.3 61.8,6.4 51.9,6.4 48,13.6 47.9,13.6 44.3,6.4 33.4,6.4 41.1,18.3 40.8,18.7 
		32.4,30.9 42.6,30.9 46.8,22.7 47,22.7 51.5,30.9 62.5,30.9 	"/>
	<path class="st0" d="M34.6,23.8c-0.7-3.3-3.2-4.3-4.9-4.5v-0.1c0.7-0.1,1.4-0.3,2-0.6c2.2-1,3.8-3,3.8-5.7c0-6.2-6.4-6.5-9.9-6.5
		H10.8v12.3v12.3h9.4v-8.5h2.1c1,0,2.7,0.3,3,2.4l0.9,6.2H36L34.6,23.8z M19.8,11.9h2.4c1,0,3.7,0.1,3.7,2.5c0,2.8-3,2.7-3.8,2.7
		h-2.3L19.8,11.9L19.8,11.9z"/>
</g>
<g>
	<path class="st0" d="M90,30.9h-6.6c-1.5-2.3-2.8-4.3-4-5.9c-1.2-1.7-2.4-3.4-3.8-5.2h-2.5v7.8c0,0.4,0.1,0.8,0.2,1
		c0.1,0.3,0.4,0.5,0.8,0.7c0.2,0.1,0.6,0.2,1.1,0.3c0.5,0.1,1,0.1,1.3,0.1v1.2H66.1v-1.2c0.3,0,0.7-0.1,1.2-0.1
		c0.5-0.1,0.9-0.2,1.1-0.3c0.3-0.2,0.6-0.3,0.8-0.7c0.2-0.3,0.3-0.7,0.3-1.1V9.9c0-0.4-0.1-0.8-0.2-1c-0.1-0.3-0.3-0.5-0.8-0.7
		c-0.3-0.1-0.7-0.2-1.1-0.3c-0.4-0.1-0.9-0.2-1.2-0.2V6.4h11.3c1,0,2,0.1,3,0.3c0.9,0.2,1.7,0.5,2.4,1c0.7,0.4,1.3,1,1.7,1.8
		c0.3,0.7,0.5,1.6,0.5,2.6c0,1-0.2,1.8-0.4,2.5c-0.3,0.7-0.7,1.4-1.3,1.9c-0.5,0.5-1.1,1-1.8,1.3c-0.7,0.3-1.6,0.7-2.4,1
		c1.2,1.6,2.3,3,3,4.1s1.8,2.4,3,4c0.5,0.7,1,1.2,1.4,1.6c0.4,0.3,0.8,0.6,1.2,0.8c0.3,0.2,0.7,0.3,1.1,0.3c0.4,0.1,0.8,0.1,1.1,0.2
		C90,29.9,90,30.9,90,30.9z M80.9,12.7c0-1.5-0.4-2.7-1.3-3.6c-0.9-0.9-2.1-1.3-3.7-1.3h-3v10.5h2.3c1.6,0,3-0.5,4-1.6
		C80.4,15.8,80.9,14.4,80.9,12.7z"/>
	<path class="st0" d="M106.6,30.7c-0.5,0.2-1,0.3-1.4,0.4c-0.4,0.1-0.9,0.2-1.4,0.2c-0.9,0-1.7-0.2-2.2-0.6s-0.9-1-1-1.8h-0.1
		c-0.8,0.9-1.6,1.5-2.4,1.9c-0.9,0.4-1.9,0.7-3.1,0.7c-1.3,0-2.3-0.4-3.1-1.2s-1.2-1.8-1.2-3c0-0.7,0.1-1.2,0.3-1.7
		c0.2-0.5,0.4-1,0.9-1.4c0.3-0.3,0.7-0.7,1.1-1c0.4-0.3,1-0.5,1.3-0.6c0.5-0.2,1.6-0.5,3.1-1.1c1.6-0.5,2.7-1,3.2-1.2v-1.7
		c0-0.2,0-0.4-0.1-0.9s-0.2-0.9-0.4-1.2c-0.3-0.4-0.5-0.8-1-1.1s-1-0.4-1.8-0.4c-0.5,0-1,0.1-1.5,0.3s-0.8,0.3-1,0.5
		c0,0.3,0.1,0.6,0.2,1c0.1,0.4,0.2,0.9,0.2,1.2c0,0.4-0.2,0.8-0.5,1.1c-0.3,0.3-0.9,0.5-1.5,0.5c-0.6,0-1-0.2-1.3-0.6
		s-0.4-0.9-0.4-1.4c0-0.5,0.2-1,0.5-1.6c0.3-0.5,0.9-1,1.5-1.3c0.5-0.3,1.1-0.6,1.9-0.8c0.7-0.3,1.5-0.3,2.2-0.3
		c1,0,1.8,0.1,2.5,0.2c0.7,0.2,1.4,0.4,2,0.9c0.6,0.4,1,1,1.3,1.7c0.3,0.7,0.4,1.7,0.4,2.9c0,1.7,0,3.1-0.1,4.3
		c0,1.3-0.1,2.7-0.1,4.2c0,0.4,0.1,0.8,0.3,1c0.2,0.3,0.4,0.5,0.7,0.7c0.2,0.1,0.4,0.2,0.8,0.2c0.3,0,0.8,0,1.1,0v1.1H106.6z
		 M100.5,21.5c-1,0.3-1.8,0.6-2.6,0.9c-0.7,0.3-1.4,0.6-2.1,1c-0.6,0.4-1,0.9-1.4,1.4c-0.3,0.5-0.5,1.2-0.5,1.9c0,1,0.3,1.7,0.8,2.1
		c0.5,0.4,1.1,0.7,1.9,0.7c0.8,0,1.6-0.2,2.2-0.6c0.6-0.4,1.1-0.9,1.6-1.4L100.5,21.5z"/>
	<path class="st0" d="M118.6,30.2c-0.8,0.3-1.5,0.6-2.1,0.8c-0.7,0.2-1.5,0.3-2.4,0.3c-1.4,0-2.4-0.3-3-1c-0.6-0.7-0.9-1.7-0.9-3
		V15.6h-3V14h3.1V8.7h3.1V14h4.9v1.7h-4.9v9.6c0,0.7,0,1.3,0.1,1.8s0.2,0.9,0.3,1.2c0.2,0.3,0.4,0.6,0.9,0.8
		c0.3,0.2,0.9,0.3,1.5,0.3c0.3,0,0.7,0,1.3-0.1c0.5-0.1,1-0.1,1.2-0.2L118.6,30.2L118.6,30.2z"/>
	<path class="st0" d="M128.4,30.9h-8.3v-1.1c0.3,0,0.5-0.1,0.8-0.1c0.3,0,0.5-0.1,0.7-0.2c0.3-0.1,0.5-0.3,0.7-0.5
		c0.2-0.3,0.3-0.6,0.3-1V17.5c0-0.3-0.1-0.7-0.3-1c-0.2-0.3-0.4-0.5-0.7-0.8c-0.3-0.2-0.5-0.3-1-0.3c-0.4-0.1-0.8-0.2-1.1-0.2v-1.1
		l6-0.3l0.3,0.3v13.9c0,0.4,0.1,0.7,0.3,1c0.2,0.3,0.4,0.4,0.7,0.6c0.3,0.1,0.5,0.2,0.7,0.3c0.3,0.1,0.5,0.1,0.8,0.1v1H128.4z
		 M126.3,6.9c0,0.7-0.2,1.2-0.6,1.7s-1,0.7-1.6,0.7c-0.6,0-1.1-0.3-1.6-0.7c-0.4-0.4-0.6-1-0.6-1.6c0-0.6,0.2-1.2,0.6-1.7
		s1-0.7,1.6-0.7c0.7,0,1.2,0.3,1.7,0.7C126,5.8,126.3,6.3,126.3,6.9z"/>
	<path class="st0" d="M149.3,30.9h-8.3v-1.1c0.3,0,0.5-0.1,0.9-0.1c0.3,0,0.6-0.1,0.8-0.2c0.3-0.1,0.5-0.3,0.7-0.5
		c0.2-0.3,0.3-0.6,0.3-1v-8.7c0-1.2-0.3-2.2-0.9-2.8c-0.6-0.7-1.3-1-2.1-1c-0.6,0-1.2,0.1-1.7,0.3c-0.5,0.2-1,0.4-1.4,0.7
		c-0.3,0.3-0.7,0.5-0.9,0.9c-0.3,0.3-0.3,0.5-0.5,0.7v9.8c0,0.4,0.1,0.7,0.3,1c0.2,0.3,0.4,0.4,0.7,0.6c0.3,0.1,0.5,0.2,0.8,0.3
		s0.6,0.1,0.9,0.1v1.1h-8.3v-1.1c0.3,0,0.5-0.1,0.8-0.1s0.5-0.1,0.7-0.2c0.3-0.1,0.5-0.3,0.7-0.5c0.2-0.3,0.3-0.6,0.3-1V17.5
		c0-0.4-0.1-0.8-0.3-1c-0.2-0.3-0.4-0.6-0.7-0.8c-0.3-0.2-0.5-0.3-0.8-0.3c-0.3-0.1-0.6-0.1-1-0.1v-1.1l5.7-0.3l0.3,0.3v2.4h0.1
		c0.3-0.3,0.6-0.6,1-1c0.4-0.3,0.8-0.7,1.2-1s1-0.5,1.6-0.7s1.2-0.3,2-0.3c1.7,0,2.9,0.5,3.7,1.6c0.8,1,1.2,2.3,1.2,4.1v8.9
		c0,0.4,0.1,0.7,0.2,1c0.2,0.3,0.3,0.4,0.7,0.6c0.3,0.1,0.5,0.2,0.7,0.3c0.2,0.1,0.5,0.1,0.9,0.1L149.3,30.9L149.3,30.9z"/>
	<path class="st0" d="M165.9,29.2c0.4,0.4,0.8,1,1.1,1.5c0.3,0.5,0.4,1.2,0.4,2.1c0,0.8-0.2,1.6-0.5,2.3c-0.3,0.7-0.9,1.3-1.7,1.9
		c-0.8,0.5-1.7,1-2.8,1.3c-1,0.3-2.4,0.4-4,0.4c-2.6,0-4.5-0.3-5.8-1.1c-1.3-0.8-1.9-1.8-1.9-3.3c0-1.2,0.4-2.1,1.4-2.8
		c1-0.7,2.1-1,3.6-1.1v-0.3c-0.3-0.1-0.7-0.3-1-0.3c-0.3-0.2-0.7-0.3-1-0.5c-0.3-0.3-0.5-0.5-0.7-0.9c-0.2-0.3-0.3-0.7-0.3-1.2
		c0-0.6,0.2-1.2,0.6-1.7c0.4-0.5,1.1-1,2-1.3V24c-1.1-0.5-2-1.2-2.6-2c-0.6-0.8-1-1.7-1-2.9c0-1.7,0.6-3,1.8-4s2.8-1.6,4.6-1.6
		c0.5,0,1,0.1,1.6,0.2c0.5,0.1,1,0.3,1.6,0.4h5.9v1.7h-4v0.1c0.4,0.5,0.8,1,1,1.7s0.3,1.2,0.3,1.7c0,1.5-0.6,2.8-1.8,3.8
		s-2.6,1.6-4.3,1.6h-2.1c-0.3,0.1-0.5,0.3-0.9,0.5c-0.3,0.3-0.4,0.6-0.4,1c0,0.4,0.1,0.8,0.3,1c0.3,0.3,0.5,0.3,0.9,0.4
		c0.3,0.1,0.7,0.2,1.1,0.2s0.9,0,1.4,0.1c0.5,0,1.2,0.1,2.1,0.1c0.9,0.1,1.5,0.1,1.9,0.1c0.5,0,1,0.2,1.6,0.3
		C164.9,28.5,165.4,28.8,165.9,29.2z M164.5,33.4c0-0.6-0.2-1.2-0.4-1.6c-0.3-0.4-0.8-0.7-1.4-0.9c-0.3-0.1-1-0.1-2-0.2
		c-1-0.1-2.2-0.1-3.5-0.1c-1.2,0.3-2.2,0.6-2.7,1.2c-0.5,0.6-0.8,1.3-0.8,2.2c0,0.4,0.1,0.8,0.3,1.1c0.2,0.3,0.4,0.7,0.9,1
		c0.4,0.3,1,0.5,1.7,0.7c0.7,0.2,1.5,0.3,2.5,0.3c1.7,0,3-0.3,4-1C163.9,35.7,164.5,34.7,164.5,33.4z M161.2,19.1
		c0-1.4-0.3-2.4-0.8-3.2c-0.5-0.8-1.3-1.2-2.3-1.2c-0.5,0-1,0.1-1.4,0.3s-0.7,0.5-1,1c-0.3,0.3-0.4,0.9-0.5,1.4
		c-0.1,0.5-0.2,1.1-0.2,1.7c0,1.3,0.3,2.3,0.9,3.1c0.5,0.8,1.3,1.2,2.2,1.2c1,0,1.7-0.4,2.3-1.2C160.9,21.3,161.2,20.3,161.2,19.1z"
		/>
	<path class="st0" d="M201.9,30.9h-6.6c-1.5-2.3-2.8-4.3-4-5.9c-1.2-1.7-2.4-3.4-3.8-5.2h-2.5v7.8c0,0.4,0.1,0.8,0.2,1
		c0.1,0.3,0.4,0.5,0.8,0.7c0.2,0.1,0.6,0.2,1.1,0.3c0.5,0.1,1,0.1,1.3,0.1v1.2h-10.3v-1.2c0.3,0,0.7-0.1,1.2-0.1
		c0.5-0.1,0.9-0.2,1.1-0.3c0.3-0.2,0.6-0.3,0.8-0.7c0.2-0.3,0.3-0.7,0.3-1.1V9.9c0-0.4-0.1-0.8-0.2-1c-0.1-0.3-0.3-0.5-0.8-0.7
		c-0.3-0.1-0.7-0.2-1.1-0.3c-0.4-0.1-0.9-0.2-1.2-0.2V6.4h11.3c1,0,2,0.1,3,0.3c0.9,0.2,1.7,0.5,2.4,1c0.7,0.4,1.3,1,1.7,1.8
		c0.4,0.8,0.6,1.7,0.6,2.7c0,1-0.2,1.8-0.4,2.5c-0.3,0.7-0.7,1.4-1.3,1.9c-0.5,0.5-1.1,1-1.8,1.3c-0.7,0.3-1.6,0.7-2.4,1
		c1.2,1.6,2.3,3,3,4.1c0.8,1.1,1.8,2.4,3,4c0.5,0.7,1,1.2,1.4,1.6c0.4,0.3,0.8,0.6,1.2,0.8c0.3,0.2,0.7,0.3,1.1,0.3
		c0.4,0.1,0.8,0.1,1.1,0.2L201.9,30.9L201.9,30.9z M192.7,12.7c0-1.5-0.4-2.7-1.3-3.6c-0.9-0.9-2.1-1.3-3.7-1.3h-3v10.5h2.3
		c1.6,0,3-0.5,4-1.6C192.2,15.8,192.7,14.4,192.7,12.7z"/>
	<path class="st0" d="M217.3,26.9c-0.7,1.4-1.7,2.4-2.9,3.2c-1.2,0.8-2.6,1.2-4.2,1.2c-1.4,0-2.6-0.3-3.7-0.7c-1-0.5-1.9-1.1-2.5-2
		c-0.7-0.9-1.1-1.8-1.5-2.9c-0.3-1.1-0.5-2.3-0.5-3.5c0-1.1,0.2-2.2,0.5-3.3c0.3-1,0.9-2,1.6-2.9c0.7-0.8,1.5-1.5,2.4-2
		c1-0.5,2.1-0.8,3.3-0.8s2.3,0.2,3.2,0.6c0.9,0.4,1.7,1,2.2,1.7c0.5,0.6,1,1.4,1.2,2.3c0.3,0.9,0.3,1.8,0.3,2.9v1.1h-11.3
		c0,1.1,0.1,2.2,0.3,3c0.2,1,0.5,1.7,1,2.4c0.4,0.7,1,1.2,1.7,1.6c0.7,0.3,1.6,0.6,2.6,0.6s1.9-0.3,2.7-0.7c0.8-0.5,1.5-1.4,2.2-2.6
		L217.3,26.9z M213.5,20.4c0-0.6-0.1-1.3-0.2-2.1c-0.1-0.7-0.3-1.4-0.5-1.8c-0.3-0.5-0.6-1-1.1-1.3c-0.4-0.3-1-0.5-1.8-0.5
		c-1.2,0-2.3,0.5-3,1.5c-0.8,1-1.2,2.4-1.3,4.2L213.5,20.4L213.5,20.4z"/>
	<path class="st0" d="M236,14.9c-0.5,0.1-1,0.3-1.5,0.5c-0.4,0.3-0.9,0.8-1.2,1.5c-0.7,1.6-1.4,3.1-2.1,4.9
		c-0.7,1.7-1.5,3.5-2.3,5.3c-0.3,0.5-0.4,1.1-0.7,1.9c-0.3,0.7-0.5,1.4-0.7,2.1h-1.4c-1.1-2.7-2.1-5.2-3-7.4c-1-2.3-1.9-4.5-2.9-6.9
		c-0.3-0.5-0.6-1-1.1-1.2c-0.5-0.3-1-0.5-1.6-0.5V14h7.9v1.2c-0.3,0-0.8,0.1-1.3,0.2c-0.5,0.2-0.8,0.3-0.8,0.5c0,0,0,0.1,0.1,0.3
		c0.1,0.2,0.1,0.3,0.2,0.5c0.4,1.2,1.1,2.8,2,5c0.9,2.1,1.6,3.8,2.1,5.1c0.4-1,1-2.3,1.6-3.7c0.6-1.5,1.3-3.1,2-5
		c0.1-0.3,0.3-0.6,0.3-0.9c0.1-0.3,0.2-0.5,0.2-0.8c0-0.2-0.1-0.3-0.3-0.5c-0.2-0.2-0.4-0.3-0.7-0.4c-0.3-0.1-0.5-0.2-0.8-0.3
		c-0.3-0.1-0.4-0.1-0.6-0.1V14h6.5V14.9z"/>
	<path class="st0" d="M245.8,31.1h-8.3V30c0.3,0,0.5-0.1,0.8-0.1c0.3,0,0.5-0.1,0.7-0.2c0.3-0.1,0.5-0.3,0.7-0.5
		c0.2-0.3,0.3-0.6,0.3-1V17.7c0-0.3-0.1-0.7-0.3-1c-0.2-0.3-0.4-0.5-0.7-0.8c-0.3-0.2-0.5-0.3-1-0.3c-0.4-0.1-0.8-0.2-1.1-0.2v-1.1
		l6-0.3l0.3,0.3v13.9c0,0.4,0.1,0.7,0.3,1c0.2,0.3,0.4,0.4,0.7,0.6c0.3,0.1,0.5,0.2,0.7,0.3c0.3,0.1,0.5,0.1,0.8,0.1v1H245.8z
		 M243.6,7.1c0,0.7-0.2,1.2-0.6,1.7s-1,0.7-1.6,0.7c-0.6,0-1.1-0.3-1.6-0.7c-0.4-0.4-0.6-1-0.6-1.6c0-0.6,0.2-1.2,0.6-1.7
		c0.4-0.4,1-0.7,1.6-0.7c0.7,0,1.2,0.3,1.7,0.7C243.3,6,243.6,6.5,243.6,7.1z"/>
	<path class="st0" d="M262,26.9c-0.7,1.4-1.7,2.4-2.9,3.2c-1.2,0.8-2.6,1.2-4.2,1.2c-1.4,0-2.6-0.3-3.7-0.7c-1-0.5-1.9-1.1-2.5-2
		c-0.7-0.9-1.1-1.8-1.5-2.9c-0.3-1.1-0.5-2.3-0.5-3.5c0-1.1,0.2-2.2,0.5-3.3c0.3-1,0.9-2,1.6-2.9c0.7-0.8,1.5-1.5,2.4-2
		c1-0.5,2.1-0.8,3.3-0.8s2.3,0.2,3.2,0.6c0.9,0.4,1.7,1,2.2,1.7c0.5,0.6,1,1.4,1.2,2.3s0.3,1.8,0.3,2.9v1.1h-11.3
		c0,1.1,0.1,2.2,0.3,3c0.3,0.9,0.5,1.7,1,2.4c0.4,0.7,1,1.2,1.7,1.6c0.7,0.3,1.6,0.6,2.6,0.6c1,0,1.9-0.3,2.7-0.7
		c0.8-0.5,1.5-1.4,2.2-2.6L262,26.9z M258.2,20.4c0-0.6-0.1-1.3-0.2-2.1c-0.1-0.7-0.3-1.4-0.5-1.8c-0.3-0.5-0.6-1-1.1-1.3
		c-0.4-0.3-1-0.5-1.8-0.5c-1.2,0-2.3,0.5-3,1.5c-0.8,1-1.2,2.4-1.3,4.2L258.2,20.4L258.2,20.4z"/>
	<path class="st0" d="M289.3,15c-0.5,0.1-1,0.3-1.6,0.6c-0.5,0.3-1,0.9-1.2,1.7c-0.6,1.7-1.1,3.3-1.7,4.8c-0.5,1.5-1.1,3.2-1.7,5.1
		c-0.2,0.6-0.4,1.2-0.6,1.9c-0.2,0.7-0.4,1.4-0.6,2h-1.5l-4.6-12.6l-4.6,12.6h-1.4c-0.9-2.5-1.7-5.1-2.5-7.7
		c-0.8-2.5-1.6-4.7-2.2-6.6c-0.2-0.5-0.5-1-1-1.3c-0.5-0.3-1-0.5-1.5-0.5v-1.1h7.7v1.2c-0.3,0-0.8,0.1-1.2,0.2
		c-0.4,0.1-0.7,0.3-0.7,0.6c0,0.1,0,0.2,0.1,0.3c0,0.2,0.1,0.3,0.2,0.5c0.3,1.2,0.8,2.5,1.2,4.1c0.4,1.5,1,3.4,1.8,5.8l4.3-12.3h1.7
		l4.4,12.1c0.5-1.6,1-3,1.5-4.5c0.5-1.5,1-2.8,1.3-4.1c0.1-0.3,0.2-0.6,0.3-0.8c0.1-0.3,0.1-0.5,0.1-0.7s-0.1-0.4-0.3-0.5
		c-0.2-0.2-0.4-0.3-0.7-0.4c-0.3-0.1-0.5-0.2-0.8-0.2c-0.3-0.1-0.4-0.1-0.6-0.1V14h6.5L289.3,15L289.3,15z"/>
</g>
<text transform="matrix(1 0 0 1 0.5117 50.498)" class="st0 st2 st3">Сайт рейтинговой группы RAEX</text>
</svg>
