<svg xmlns="http://www.w3.org/2000/svg" viewBox="0 0 286.84 325.61">
                    <path class="cls-1" d="M260.11,95.13l-8.56-8.55L181.98,17c-22.68-22.67-59.44-22.67-82.13,0-.89.89-1.76,1.82-2.58,2.76l-58.51,58.51.21.21c-.87.7-1.72,1.41-2.56,2.14l-10.7,10.75c-34.66,40.05-34.23,99.59,1,139.12l8.56,8.53,69.57,69.59c22.69,22.67,59.45,22.67,82.13,0,.89-.89,1.76-1.82,2.58-2.76l58.51-58.52-.21-.21c.87-.7,1.73-1.41,2.56-2.14l10.72-10.72c16.62-19.14,25.75-43.65,25.71-69,.03-25.87-9.49-50.84-26.73-70.13ZM190.74,201.08c-7.6,0-13.77-6.16-13.77-13.77,0-2.21.52-4.31,1.46-6.16l-18.27-13.84c-2.08,2.1-4.66,3.72-7.54,4.66l2.24,17.05c5.77,1,10.15,6.03,10.15,12.07,0,6.77-5.48,12.25-12.25,12.25s-12.25-5.48-12.25-12.25c0-5.77,4-10.61,9.37-11.9l-2.14-16.3c-.35.02-.7.03-1.06.03-4.29,0-8.26-1.42-11.44-3.82l-22.77,23.1c3.4,4.13,5.44,9.44,5.44,15.21,0,13.24-10.72,23.96-23.96,23.96s-23.96-10.72-23.96-23.96,10.73-23.96,23.96-23.96c5.67,0,10.89,1.97,14.99,5.27l22.77-23.11c-2.53-3.22-4.03-7.28-4.03-11.69,0-.59.03-1.18.08-1.76l-6.32-1.45c-1.48,2.54-4.24,4.25-7.39,4.25-4.71,0-8.54-3.82-8.54-8.54s3.83-8.54,8.54-8.54,8.25,3.55,8.52,8.01l6.28,1.45c1.42-3.83,4.03-7.07,7.38-9.28l-6.27-13c-2.54.76-5.32.88-8.09.23-8.44-1.99-13.67-10.45-11.67-18.89,1.99-8.44,10.45-13.66,18.89-11.67,8.43,1.99,13.66,10.45,11.67,18.89-.93,3.93-3.26,7.16-6.33,9.29l6.26,12.98c1.88-.63,3.9-.97,5.99-.97,5.36,0,10.21,2.22,13.66,5.8l8.6-6.4c-.33-.91-.51-1.89-.51-2.91,0-4.71,3.83-8.54,8.54-8.54s8.54,3.83,8.54,8.54-3.82,8.54-8.54,8.54c-1.89,0-3.65-.62-5.07-1.66l-8.61,6.4c1.53,2.73,2.39,5.88,2.39,9.23s-.91,6.67-2.51,9.45l18.24,13.82c2.46-2.27,5.73-3.65,9.33-3.65,7.61,0,13.77,6.17,13.77,13.77s-6.16,13.77-13.77,13.77Z" fill="#fff"></path>
                </svg>